<?xml version="1.0" encoding="UTF-8"?>
<svg id="Calque_1" data-name="Calque 1" xmlns="http://www.w3.org/2000/svg" viewBox="0 0 22 19">
  <path d="m15,1c1.66,0,3,1.34,3,3,0,1.22-.73,2.28-1.78,2.74m.5,3.26c2.37,0,4.29,1.92,4.29,4.29,0,.95-.77,1.71-1.71,1.71M7,1c-1.66,0-3,1.34-3,3,0,1.22.73,2.28,1.78,2.74m-3.07,9.26c-.95,0-1.71-.77-1.71-1.71,0-2.37,1.92-4.29,4.29-4.29m8.71-5c0,1.66-1.34,3-3,3s-3-1.34-3-3,1.34-3,3-3,3,1.34,3,3Zm-1.29,7h-3.43c-2.37,0-4.29,1.92-4.29,4.29,0,.95.77,1.71,1.71,1.71h8.57c.95,0,1.71-.77,1.71-1.71,0-2.37-1.92-4.29-4.29-4.29Z" style="fill: none; stroke: #f8f9fa; stroke-linecap: round; stroke-linejoin: round; stroke-width: 1.5px;"/>
</svg>