<?xml version="1.0" encoding="UTF-8"?>
<svg id="Calque_1" data-name="Calque 1" xmlns="http://www.w3.org/2000/svg" viewBox="0 0 20 20">
  <path d="m19,2.61v12.77c0,.18-.05.36-.15.52-.1.16-.24.29-.4.37l-4.56,2.28c-.27.14-.58.21-.89.21V3.77c.31,0,.62-.07.89-.21l3.66-1.83c.16-.08.33-.12.5-.11s.33.06.48.15c.14.09.26.22.34.37.09.14.13.31.13.48Z" style="fill: #f8f9fa; stroke-width: 0px;"/>
  <path d="m12.46,3.77v15c-.28,0-.56-.07-.81-.21l-3.84-2.11c-.25-.14-.53-.21-.81-.21V1.23c.28,0,.56.07.81.21l3.84,2.11c.25.14.53.21.81.21Z" style="fill: #f8f9fa; stroke-width: 0px;"/>
  <path d="m6.55,1.23v15c-.29,0-.57.07-.82.21l-3.39,1.83c-.15.08-.31.11-.46.11-.16-.01-.31-.06-.44-.15-.13-.09-.24-.22-.31-.37-.08-.15-.12-.31-.12-.49V4.61c0-.18.05-.37.14-.52.09-.16.22-.29.37-.37L5.73,1.45c.25-.14.54-.21.82-.21Z" style="fill: #f8f9fa; stroke-width: 0px;"/>
</svg>