<?xml version="1.0" encoding="UTF-8"?>
<svg id="Calque_1" data-name="Calque 1" xmlns="http://www.w3.org/2000/svg" viewBox="0 0 20 20">
  <path d="m13,3.53c-.31,0-.62-.07-.89-.21L7.89,1.21c-.28-.14-.58-.21-.89-.21m6,2.53c.31,0,.62-.07.89-.21l3.66-1.83c.15-.08.32-.11.49-.1.17,0,.34.06.48.15.14.09.26.22.35.36.08.15.13.32.13.49v12.76c0,.19-.05.37-.15.53-.1.16-.24.29-.4.37l-4.55,2.28c-.28.14-.58.21-.89.21m0-15v15m0,0c-.31,0-.62-.07-.89-.21l-4.21-2.11c-.28-.14-.58-.21-.89-.21s-.62.07-.89.21l-3.66,1.83c-.15.08-.32.11-.49.1-.17,0-.34-.06-.48-.15-.15-.09-.26-.22-.35-.36-.08-.15-.13-.32-.13-.49V4.38c0-.19.05-.37.15-.53.1-.16.24-.29.4-.37L6.11,1.21c.28-.14.58-.21.89-.21m0,0v15" style="fill: none; stroke: #f8f9fa; stroke-linecap: round; stroke-linejoin: round; stroke-width: 1.5px;"/>
</svg>