<?xml version="1.0" encoding="UTF-8"?>
<svg id="Calque_1" data-name="Calque 1" xmlns="http://www.w3.org/2000/svg" viewBox="0 0 22 19">
  <path d="m15,1c1.66,0,3,1.34,3,3,0,1.22-.73,2.28-1.78,2.74m.49,3.26c2.37,0,4.29,1.92,4.29,4.29,0,.94-.77,1.71-1.71,1.71M5.78,6.74c-1.05-.46-1.78-1.52-1.78-2.74,0-1.66,1.34-3,3-3m-4.29,15c-.94,0-1.71-.77-1.71-1.71,0-2.37,1.92-4.29,4.29-4.29" style="fill: none; stroke: #f8f9fa; stroke-linecap: round; stroke-linejoin: round; stroke-width: 1.5px;"/>
  <path d="m17,16.29c0,.94-.77,1.71-1.71,1.71H6.71c-.94,0-1.71-.77-1.71-1.71,0-2.37,1.92-4.29,4.29-4.29h3.42c2.37,0,4.29,1.92,4.29,4.29Z" style="fill: #f8f9fa; stroke: #f8f9fa; stroke-linecap: round; stroke-linejoin: round; stroke-width: 1.5px;"/>
  <circle cx="11" cy="5" r="3" style="fill: #f8f9fa; stroke: #f8f9fa; stroke-linecap: round; stroke-linejoin: round; stroke-width: 1.5px;"/>
</svg>