<?xml version="1.0" encoding="UTF-8"?>
<svg id="Calque_1" data-name="Calque 1" xmlns="http://www.w3.org/2000/svg" viewBox="0 0 18 20">
  <path d="m4.63,3.49l-.89.7c-1.35,1.07-2.02,1.6-2.38,2.35-.36.75-.36,1.62-.36,3.35v1.88c0,3.41,0,5.11,1.04,6.17,1.04,1.06,2.72,1.06,6.07,1.06h1.78c3.35,0,5.03,0,6.07-1.06,1.04-1.06,1.04-2.76,1.04-6.17v-1.88c0-1.74,0-2.6-.36-3.35-.36-.75-1.04-1.28-2.38-2.35l-.89-.7c-2.1-1.66-3.15-2.49-4.37-2.49s-2.27.83-4.37,2.49Z" style="fill: none; stroke: #f8f9fa; stroke-linejoin: round; stroke-width: 1.5px;"/>
</svg>